<?xml version="1.0" encoding="utf-8"?>
<svg version="1.1" xmlns="http://www.w3.org/2000/svg" width="128" height="128" xmlns:bx="https://boxy-svg.com">
  <defs>
    <bx:export>
      <bx:file format="svg"/>
    </bx:export>
  </defs>
  <path d="M0 0 C2.65527344 1.13891602 2.65527344 1.13891602 5.359375 2.75390625 C6.3810376 3.35444824 7.4027002 3.95499023 8.45532227 4.57373047 C9.54256592 5.23002441 10.62980957 5.88631836 11.75 6.5625 C13.47336843 7.5810835 15.19675059 8.59964455 16.9209137 9.61688232 C18.72210967 10.68149868 20.52002602 11.75151403 22.31787109 12.82177734 C26.01203258 15.01461311 29.73063612 17.16328481 33.45703125 19.30078125 C34.05693878 19.6450264 34.65684631 19.98927155 35.27493286 20.34394836 C37.03723693 21.35468025 38.79984912 22.36487308 40.5625 23.375 C42.75236098 24.63096805 44.94125774 25.88861972 47.12890625 27.1484375 C48.04744385 27.67614746 48.96598145 28.20385742 49.91235352 28.74755859 C52 30 52 30 53 31 C53.07325168 33.86267567 53.09238205 36.700719 53.0625 39.5625 C53.05798828 40.36880859 53.05347656 41.17511719 53.04882812 42.00585938 C53.03700518 44.00393756 53.01906914 46.00197783 53 48 C51.125 48.625 51.125 48.625 49 49 C47 47 47 47 46.8046875 45.0546875 C46.86979167 43.03645833 46.93489583 41.01822917 47 39 C42.21594753 41.45180286 37.43287128 43.90549684 32.65063477 46.36083984 C31.02849664 47.19337342 29.40610707 48.02541726 27.78344727 48.85693359 C26.9996167 49.2586377 26.21578613 49.6603418 25.40820312 50.07421875 C24.63156815 50.47200531 23.85493317 50.86979187 23.05476379 51.27963257 C21.50923718 52.07552424 19.96646893 52.87679601 18.42655945 53.6835022 C15.12923523 55.41053205 11.86059433 57.06126984 8.45043945 58.56005859 C3.16788024 60.81055753 3.16788024 60.81055753 0.06958008 65.33349609 C-0.31012865 68.08529768 -0.32397092 70.60206912 -0.1875 73.375 C-0.18556641 74.30183594 -0.18363281 75.22867188 -0.18164062 76.18359375 C-0.1699012 78.46104225 -0.10814575 80.72543019 0 83 C7.90145198 79.69910407 7.90145198 79.69910407 15 75 C16.10268898 72.13642783 16.09149898 70.24603515 15.9140625 67.2109375 C15.94242187 66.48132813 15.97078125 65.75171875 16 65 C20.47619048 61 20.47619048 61 24 61 C24.0825 60.071875 24.165 59.14375 24.25 58.1875 C25 55 25 55 26.6875 53.125 C29.78492126 51.61814642 31.59135918 51.44348721 35 52 C38.32274404 54.45594125 39.77618008 55.9256644 40.625 60 C39.77618008 64.0743356 38.32274404 65.54405875 35 68 C31.47534272 68.42295887 29.36366391 68.1212213 26 67 C22.82400176 68.63019922 22.82400176 68.63019922 22.4453125 71.2421875 C22.23247051 72.99164486 22.02410607 74.74165302 21.8203125 76.4921875 C20.31910053 81.08160694 16.57917759 82.68018477 12.51953125 84.921875 C11.28695912 85.53750614 10.05121415 86.14682258 8.8125 86.75 C8.18408203 87.06582031 7.55566406 87.38164063 6.90820312 87.70703125 C2.26767113 90 2.26767113 90 0 90 C0.495 104.355 0.495 104.355 1 119 C7.6255308 115.31914956 14.24289122 111.63335984 20.83695984 107.89808655 C24.57112915 105.78905773 28.3332278 103.74020572 32.11328125 101.71484375 C33.93040506 100.70702185 35.74685133 99.69797703 37.5625 98.6875 C38.41811523 98.24567383 39.27373047 97.80384766 40.15527344 97.34863281 C42.4502236 96.04227657 44.2361959 94.96738746 46 93 C46.68230829 89.87819703 46.52603778 87.13674382 46 84 C43.3641518 85.3779662 40.74267107 86.77574748 38.125 88.1875 C37.37863281 88.57486328 36.63226563 88.96222656 35.86328125 89.36132812 C31.44780952 91.71752277 31.44780952 91.71752277 28.5625 95.6875 C28.2840625 96.8321875 28.2840625 96.8321875 28 98 C26.875 99.8125 26.875 99.8125 25 101 C21.90437069 101.39309578 19.95663395 101.62338668 17 101 C14.4375 98.9375 14.4375 98.9375 13 96 C13.06076131 92.4758443 13.27744644 90.08383034 15.25 87.125 C17.54070678 85.65240278 19.28886881 85.25820297 22 85 C22.78407227 85.1964209 23.56814453 85.3928418 24.37597656 85.59521484 C29.06851683 86.31909201 32.66731463 83.73673381 36.75 81.625 C37.62527344 81.21894531 38.50054687 80.81289062 39.40234375 80.39453125 C44.18152072 78.06150965 44.18152072 78.06150965 46.76367188 73.67480469 C46.99374215 71.42493142 47.01061954 69.25783326 47 67 C48 66 48 66 50.5625 65.9375 C51.366875 65.958125 52.17125 65.97875 53 66 C53.32383449 70.26771704 53.55819681 74.52880031 53.71411133 78.80517578 C53.77911849 80.25533544 53.86758361 81.70465447 53.98071289 83.15185547 C54.35279431 88.03773908 54.36465937 92.26051738 53 97 C49.7152688 100.34412724 46.07699573 102.22288139 41.86758423 104.12567139 C38.80411458 105.55986596 35.93696823 107.31588262 33.02734375 109.03515625 C31.84979779 109.7089916 30.67075076 110.38021042 29.49023438 111.04882812 C28.90459717 111.38084229 28.31895996 111.71285645 27.71557617 112.05493164 C27.12881104 112.3874292 26.5420459 112.71992676 25.9375 113.0625 C24.15780845 114.07330633 22.37850451 115.08478409 20.59976196 116.09725952 C18.86229722 117.08489294 17.12232517 118.06811125 15.38232422 119.05126953 C13.12469085 120.35200791 10.88629018 121.68670339 8.66845703 123.05419922 C7.62415527 123.69502441 6.57985352 124.33584961 5.50390625 124.99609375 C4.58552979 125.57415771 3.66715332 126.15222168 2.72094727 126.74780273 C-0.52860313 128.24326653 -2.45559713 128.44058121 -6 128 C-8.87060547 126.75341797 -8.87060547 126.75341797 -11.8671875 124.9921875 C-12.98955811 124.3412915 -14.11192871 123.69039551 -15.26831055 123.01977539 C-16.47071262 122.30514 -17.67293871 121.59020846 -18.875 120.875 C-20.11365666 120.15044325 -21.35300473 119.42706728 -22.59301758 118.70483398 C-25.13821867 117.21975831 -27.67895368 115.7274444 -30.21630859 114.22900391 C-33.84823835 112.08566349 -37.49417947 109.96724144 -41.14453125 107.85546875 C-45.31138672 105.44096663 -49.47814971 103.02640937 -53.63671875 100.59765625 C-54.45873779 100.11820557 -55.28075684 99.63875488 -56.12768555 99.14477539 C-58 98 -58 98 -59 97 C-59.77159702 88.58664216 -59.7991904 80.06584807 -59.96293831 71.61999607 C-60.0402426 67.70905624 -60.14954742 63.80502594 -60.33740234 59.89770508 C-61.51190111 34.83173421 -61.51190111 34.83173421 -57.48983765 28.6963501 C-53.63440745 25.10560204 -49.19060862 23.36857862 -44.23156738 21.77584839 C-40.84344866 20.59790213 -38.05936451 18.83280231 -35.00390625 16.953125 C-31.76721356 15.09081173 -28.52917278 13.23085923 -25.29101562 11.37109375 C-24.22689453 10.75878906 -23.16277344 10.14648438 -22.06640625 9.515625 C-21.04305176 8.92974609 -20.01969727 8.34386719 -18.96533203 7.74023438 C-17.02293496 6.60031948 -15.10056916 5.42539416 -13.20263672 4.21289062 C-11.9093042 3.38821289 -11.9093042 3.38821289 -10.58984375 2.546875 C-9.84468506 2.05541992 -9.09952637 1.56396484 -8.33178711 1.05761719 C-5.31241578 -0.31186419 -3.2896621 -0.35755478 0 0 Z M-6.70727539 6.99462891 C-7.66110107 7.56616699 -8.61492676 8.13770508 -9.59765625 8.7265625 C-10.64630859 9.34660156 -11.69496094 9.96664063 -12.77539062 10.60546875 C-13.86013672 11.27191406 -14.94488281 11.93835938 -16.0625 12.625 C-17.15111328 13.26824219 -18.23972656 13.91148438 -19.36132812 14.57421875 C-24.06460934 17.39329315 -28.24110736 19.96609342 -32 24 C-27.82813651 26.53467829 -24.29189456 26.04066171 -19.55859375 25.77734375 C-17 26 -17 26 -15.17578125 27.28515625 C-13.25867942 30.08119513 -13.76545571 32.71637996 -14 36 C-14.495 37.485 -14.495 37.485 -15 39 C-16.6026782 39.10824843 -18.20745748 39.18570645 -19.8125 39.25 C-20.70582031 39.29640625 -21.59914063 39.3428125 -22.51953125 39.390625 C-25 39 -25 39 -26.69921875 37.234375 C-28 35 -28 35 -28.94921875 32.8984375 C-30.86005002 29.44615497 -34.34340173 28.13870855 -38 27 C-40.69464365 27.42776606 -40.69464365 27.42776606 -43 29 C-44.093125 29.53625 -45.18625 30.0725 -46.3125 30.625 C-47.6428125 31.305625 -47.6428125 31.305625 -49 32 C-49 32.66 -49 33.32 -49 34 C-48.20005615 34.4125 -47.4001123 34.825 -46.57592773 35.25 C-44.19946604 36.47594296 -41.8233191 37.70248199 -39.44750977 38.9296875 C-36.77083362 40.31227988 -34.09275528 41.69210639 -31.41381836 43.0703125 C-20.18278925 48.85768465 -20.18278925 48.85768465 -14.9453125 51.8125 C-13.92739624 52.38291016 -13.92739624 52.38291016 -12.88891602 52.96484375 C-11.2008754 53.92157309 -9.52373101 54.89745944 -7.84765625 55.875 C-4.32397909 57.26706999 -2.6607493 56.85797486 1 56 C3.73953818 54.81435365 3.73953818 54.81435365 6.3984375 53.27734375 C7.85830078 52.47006836 7.85830078 52.47006836 9.34765625 51.64648438 C10.34667969 51.08251953 11.34570312 50.51855469 12.375 49.9375 C13.39722656 49.36966797 14.41945312 48.80183594 15.47265625 48.21679688 C17.9862834 46.81903225 20.49507027 45.4132736 23 44 C19.05357794 39.95362428 14.32761056 36.33966041 8.55078125 35.75 C7.04601964 35.78979535 5.54129065 35.87488451 4.04296875 36.01953125 C1.52502153 35.9954591 0.11564685 35.33547339 -2 34 C-3.42041821 31.15916359 -3.31452272 29.14522722 -3 26 C-1.375 23.625 -1.375 23.625 1 22 C4 21.5 4 21.5 7 22 C9.57669259 23.93251944 10.78992514 25.2085859 11.62109375 28.33984375 C13.69895246 32.34840404 16.92815938 33.77199101 20.8125 35.875 C21.52470703 36.29007813 22.23691406 36.70515625 22.97070312 37.1328125 C27.09799655 39.43473273 27.09799655 39.43473273 31.7109375 39.91796875 C34.20594886 38.91740959 36.48861494 37.79020921 38.8125 36.4375 C39.99779297 35.75494141 39.99779297 35.75494141 41.20703125 35.05859375 C41.79871094 34.70925781 42.39039062 34.35992187 43 34 C43 33.34 43 32.68 43 32 C42.33170166 31.6282666 41.66340332 31.2565332 40.97485352 30.87353516 C16.79053839 17.40898981 16.79053839 17.40898981 6.21704102 11.02197266 C0.10902793 6.81089988 0.10902793 6.81089988 -6.70727539 6.99462891 Z M3 27 C3 28.32 3 29.64 3 31 C3.99 30.67 4.98 30.34 6 30 C5.67 29.01 5.34 28.02 5 27 C4.34 27 3.68 27 3 27 Z M-22 31 C-22 31.99 -22 32.98 -22 34 C-21.01 34 -20.02 34 -19 34 C-19 33.01 -19 32.02 -19 31 C-19.99 31 -20.98 31 -22 31 Z M-53 39 C-53 51.54 -53 64.08 -53 77 C-49.431875 78.98 -45.86375 80.96 -42.1875 83 C-41.08688232 83.62648437 -39.98626465 84.25296875 -38.85229492 84.8984375 C-32.76192781 88.17232785 -28.21026205 89.6339838 -21.27075195 89.11328125 C-19 89 -19 89 -16 90 C-15.89175157 91.6026782 -15.81429355 93.20745748 -15.75 94.8125 C-15.70359375 95.70582031 -15.6571875 96.59914062 -15.609375 97.51953125 C-16 100 -16 100 -17.7890625 101.8359375 C-21.09667219 103.57739985 -23.45389506 102.85369193 -27 102 C-29 100 -29 100 -29.84375 97.5559082 C-31.26355367 94.41741061 -32.49315072 93.70969658 -35.5 92.10546875 C-36.386875 91.62529297 -37.27375 91.14511719 -38.1875 90.65039062 C-39.115625 90.16763672 -40.04375 89.68488281 -41 89.1875 C-41.928125 88.68541016 -42.85625 88.18332031 -43.8125 87.66601562 C-48.17866767 85.03624054 -48.17866767 85.03624054 -53 84 C-53.56957822 87.16432344 -53.6845522 89.84613686 -53 93 C-51.38089912 94.66663118 -51.38089912 94.66663118 -49.1640625 95.90625 C-48.34462158 96.41172363 -47.52518066 96.91719727 -46.6809082 97.43798828 C-45.7962085 97.95345215 -44.91150879 98.46891602 -44 99 C-43.11852295 99.51675293 -42.2370459 100.03350586 -41.32885742 100.56591797 C-38.50336224 102.19376081 -35.66137619 103.78846166 -32.8125 105.375 C-30.7849754 106.51139615 -28.75763134 107.64811446 -26.73046875 108.78515625 C-25.75384277 109.33187988 -24.7772168 109.87860352 -23.77099609 110.44189453 C-18.94171896 113.15735239 -14.14667117 115.93181919 -9.3515625 118.70703125 C-7.3012175 120.08030117 -7.3012175 120.08030117 -6 120 C-6 108.12 -6 96.24 -6 84 C-10.29 81.669375 -14.58 79.33875 -19 76.9375 C-20.33675781 76.19749756 -21.67351563 75.45749512 -23.05078125 74.69506836 C-29.63410094 71.20285379 -33.68665208 69.06817225 -41 71 C-44 70.0625 -44 70.0625 -46 68 C-46.77458063 64.4175646 -46.6664367 61.25446908 -44.9375 58 C-41.90246787 56.43353181 -39.34866332 56.7010122 -36 57 C-33 59 -33 59 -32.13476562 61.92431641 C-30.71494602 65.77261403 -29.45647896 66.40023972 -25.84375 68.2109375 C-24.82152344 68.73300781 -23.79929687 69.25507812 -22.74609375 69.79296875 C-21.67488281 70.31503906 -20.60367188 70.83710937 -19.5 71.375 C-17.89318359 72.19291016 -17.89318359 72.19291016 -16.25390625 73.02734375 C-11.35359996 75.83558129 -11.35359996 75.83558129 -6 77 C-6 72.38 -6 67.76 -6 63 C-17.53277093 56.65416312 -29.09519365 50.36939804 -40.75 44.25 C-41.74330322 43.7250293 -42.73660645 43.20005859 -43.76000977 42.65917969 C-44.67967529 42.17868164 -45.59934082 41.69818359 -46.546875 41.203125 C-47.35995117 40.77676758 -48.17302734 40.35041016 -49.01074219 39.91113281 C-50.93839146 38.86119194 -50.93839146 38.86119194 -53 39 Z M31 58 C31 59.32 31 60.64 31 62 C31.99 61.67 32.98 61.34 34 61 C33.67 60.01 33.34 59.02 33 58 C32.34 58 31.68 58 31 58 Z M-41 62 C-40.67 63.32 -40.34 64.64 -40 66 C-39.34 65.67 -38.68 65.34 -38 65 C-38 64.01 -38 63.02 -38 62 C-38.99 62 -39.98 62 -41 62 Z M20 92 C20 92.99 20 93.98 20 95 C20.99 94.67 21.98 94.34 23 94 C23 93.34 23 92.68 23 92 C22.01 92 21.02 92 20 92 Z M-24 94 C-23.67 95.32 -23.34 96.64 -23 98 C-22.34 97.67 -21.68 97.34 -21 97 C-21 96.01 -21 95.02 -21 94 C-21.99 94 -22.98 94 -24 94 Z " transform="translate(67,0)" style="fill: rgb(250, 204, 21);"/>
  <path d="M0 0 C2.0625 0.4375 2.0625 0.4375 4 1 C3.67 2.65 3.34 4.3 3 6 C1.35 5.67 -0.3 5.34 -2 5 C-1.125 1.125 -1.125 1.125 0 0 Z " transform="translate(116,54)" style="fill: rgb(250, 204, 21);"/>
</svg>